<svg width="129" height="128" viewBox="0 0 129 128" fill="none" xmlns="http://www.w3.org/2000/svg">
<path d="M103.212 53.3116C116.974 66.8741 117.135 89.0254 103.573 102.788C90.0103 116.55 67.8597 116.712 54.0975 103.149C48.6488 97.7797 45.3335 91.0636 44.1562 84.0551C37.1313 82.9803 30.3672 79.7649 24.9186 74.3954C11.1565 60.8328 10.9951 38.6815 24.5577 24.9192C38.1202 11.1575 60.271 10.9953 74.0331 24.5576C79.4815 29.9269 82.7962 36.6431 83.9737 43.6512C90.9987 44.7259 97.7632 47.942 103.212 53.3116ZM72.316 55.5877C64.62 48.0035 54.6916 45.5988 50.1411 50.2164C45.5908 54.834 48.1409 64.7255 55.8367 72.3097C63.5326 79.8939 73.4602 82.2991 78.0109 77.6817C82.5615 73.0641 80.012 63.172 72.316 55.5877Z" fill="#D9FE78"/>
</svg>
