<svg width="86" height="86" viewBox="0 0 86 86" fill="none" xmlns="http://www.w3.org/2000/svg">
<rect x="0.3" y="0.3" width="85.4" height="85.4" rx="27.7" fill="#0C1A38"/>
<rect x="0.3" y="0.3" width="85.4" height="85.4" rx="27.7" stroke="#FEFBF1" stroke-width="0.6"/>
<path fill-rule="evenodd" clip-rule="evenodd" d="M43.6127 15.0002H43.327C40.8575 15.0002 38.8 15.0002 37.1683 15.22C35.4432 15.4507 33.8856 15.9617 32.6358 17.2115C31.3831 18.4642 30.8722 20.0217 30.6414 21.7441C30.4849 22.917 30.4382 25.7162 30.4272 28.1171C24.8728 28.3011 21.5352 28.9494 19.2195 31.2679C16 34.4846 16 39.6655 16 50.0243C16 60.3832 16 65.564 19.2195 68.7807C22.4389 71.9975 27.6171 72.0002 37.9759 72.0002H48.9639C59.3227 72.0002 64.5036 72.0002 67.7203 68.7807C70.937 65.5613 70.9398 60.3832 70.9398 50.0243C70.9398 39.6655 70.9397 34.4846 67.7203 31.2679C65.4046 28.9494 62.067 28.3011 56.5126 28.1198C56.5016 25.7162 56.4576 22.917 56.2983 21.7468C56.0676 20.0217 55.5566 18.4642 54.304 17.2143C53.0541 15.9617 51.4966 15.4507 49.7715 15.22C48.1398 15.0002 46.0795 15.0002 43.6127 15.0002ZM52.3921 28.0539C52.3784 25.7272 52.3399 23.2247 52.2163 22.2935C52.0432 21.0271 51.7493 20.4832 51.3922 20.1261C51.0351 19.769 50.4912 19.475 49.2221 19.302C47.898 19.1262 46.118 19.1207 43.4699 19.1207C40.8218 19.1207 39.0417 19.1262 37.7149 19.3047C36.4486 19.475 35.9047 19.769 35.5476 20.1288C35.1905 20.4887 34.8965 21.0271 34.7235 22.2935C34.5999 23.2274 34.5587 25.7272 34.5477 28.0539C35.6245 28.0484 36.7672 28.0466 37.9759 28.0484H48.9639C50.1762 28.0484 51.3189 28.0502 52.3921 28.0539ZM43.4699 36.9761C44.0163 36.9761 44.5403 37.1932 44.9267 37.5795C45.3131 37.9659 45.5301 38.4899 45.5301 39.0364V39.0638C48.5216 39.8165 51.0241 42.1762 51.0241 45.4451C51.0241 45.9915 50.807 46.5155 50.4207 46.9019C50.0343 47.2883 49.5103 47.5053 48.9639 47.5053C48.4175 47.5053 47.8934 47.2883 47.507 46.9019C47.1207 46.5155 46.9036 45.9915 46.9036 45.4451C46.9036 44.3902 45.7334 42.9288 43.4699 42.9288C41.2064 42.9288 40.0361 44.3902 40.0361 45.4451C40.0361 46.4999 41.2064 47.9641 43.4699 47.9641C47.2744 47.9641 51.0241 50.6012 51.0241 54.6035C51.0241 57.8724 48.5216 60.2294 45.5301 60.9848V61.0123C45.5301 61.5587 45.3131 62.0827 44.9267 62.4691C44.5403 62.8554 44.0163 63.0725 43.4699 63.0725C42.9235 63.0725 42.3994 62.8554 42.0131 62.4691C41.6267 62.0827 41.4096 61.5587 41.4096 61.0123V60.9848C38.4182 60.2321 35.9157 57.8724 35.9157 54.6035C35.9157 54.0571 36.1327 53.5331 36.5191 53.1467C36.9055 52.7604 37.4295 52.5433 37.9759 52.5433C38.5223 52.5433 39.0463 52.7604 39.4327 53.1467C39.8191 53.5331 40.0361 54.0571 40.0361 54.6035C40.0361 55.6584 41.2064 57.1198 43.4699 57.1198C45.7334 57.1198 46.9036 55.6584 46.9036 54.6035C46.9036 53.5487 45.7334 52.0845 43.4699 52.0845C39.6653 52.0845 35.9157 49.4474 35.9157 45.4451C35.9157 42.1762 38.4182 39.8165 41.4096 39.0638V39.0364C41.4096 38.4899 41.6267 37.9659 42.0131 37.5795C42.3994 37.1932 42.9235 36.9761 43.4699 36.9761Z" fill="#FEFBF1"/>
</svg>
