<svg width="86" height="86" viewBox="0 0 86 86" fill="none" xmlns="http://www.w3.org/2000/svg">
<rect x="0.3" y="0.3" width="85.4" height="85.4" rx="27.7" fill="#0C1A38"/>
<rect x="0.3" y="0.3" width="85.4" height="85.4" rx="27.7" stroke="#FEFBF1" stroke-width="0.6"/>
<path fill-rule="evenodd" clip-rule="evenodd" d="M29.0514 26.2563C29.0514 22.6385 30.4886 19.1688 33.0468 16.6106C35.605 14.0524 39.0746 12.6152 42.6924 12.6152C46.3103 12.6152 49.7799 14.0524 52.3381 16.6106C54.8963 19.1688 56.3335 22.6385 56.3335 26.2563C56.3335 29.8741 54.8963 33.3438 52.3381 35.902C49.7799 38.4602 46.3103 39.8974 42.6924 39.8974C39.0746 39.8974 35.605 38.4602 33.0468 35.902C30.4886 33.3438 29.0514 29.8741 29.0514 26.2563ZM29.0514 46.7179C24.5291 46.7179 20.192 48.5144 16.9943 51.7121C13.7965 54.9098 12.0001 59.2469 12.0001 63.7692C12.0001 66.4826 13.0779 69.0848 14.9966 71.0035C16.9152 72.9221 19.5175 74 22.2309 74H63.154C65.8674 74 68.4697 72.9221 70.3883 71.0035C72.3069 69.0848 73.3848 66.4826 73.3848 63.7692C73.3848 59.2469 71.5884 54.9098 68.3906 51.7121C65.1929 48.5144 60.8558 46.7179 56.3335 46.7179H29.0514Z" fill="#FEFBF1"/>
</svg>
