<svg width="87" height="86" viewBox="0 0 87 86" fill="none" xmlns="http://www.w3.org/2000/svg">
<rect x="0.587109" y="0.3" width="85.4" height="85.4" rx="27.7" fill="#0C1A38"/>
<rect x="0.587109" y="0.3" width="85.4" height="85.4" rx="27.7" stroke="#FEFBF1" stroke-width="0.6"/>
<path d="M44.6157 43.2339C46.4951 44.6996 48.8366 45.5807 51.356 45.6353C51.4915 45.6382 51.6353 45.6382 51.77 45.6382C51.9046 45.6382 52.0477 45.6382 52.1831 45.6353C54.7018 45.5808 57.0432 44.6997 58.9224 43.2349C60.4339 44.4136 62.2456 45.213 64.2114 45.5103C64.9113 45.616 65.647 45.6353 66.3657 45.6382H66.7954C66.8709 47.0896 66.8735 48.8216 66.8735 50.9097V65.5796C66.8735 68.6403 66.8731 70.1706 65.9224 71.1216C64.9714 72.0725 63.4405 72.0728 60.3794 72.0728H50.9761V61.0903C50.9761 59.2973 49.522 57.8435 47.729 57.8433H41.5044L41.3374 57.8472C39.6217 57.934 38.2573 59.3531 38.2573 61.0903V72.0728H28.853C25.792 72.0728 24.261 72.0725 23.3101 71.1216C22.3594 70.1706 22.3589 68.6402 22.3589 65.5796V50.9097C22.3589 48.8216 22.3615 47.0896 22.437 45.6382H22.8657C23.5844 45.6354 24.3201 45.616 25.02 45.5103C26.9858 45.2131 28.7976 44.4135 30.3091 43.2349C32.1883 44.6999 34.5295 45.5807 37.0483 45.6353C37.1837 45.6382 37.3268 45.6382 37.4614 45.6382C37.5962 45.6382 37.7399 45.6382 37.8755 45.6353C40.3948 45.5808 42.7363 44.6994 44.6157 43.2339Z" fill="#FEFBF1"/>
<path d="M21.0334 22.7468C21.6712 20.463 21.9902 19.3211 22.8605 18.6605C23.7308 18 24.9164 18 27.2876 18H61.945C64.3162 18 65.5018 18 66.3721 18.6605C67.2424 19.3211 67.5614 20.463 68.1993 22.7468L71.7196 35.3506C72.0461 36.5194 72.2093 37.1038 72.201 37.5779C72.176 38.9921 71.2384 40.2274 69.8831 40.6319C69.4288 40.7674 68.822 40.7674 67.6084 40.7674H67.0779C65.9742 40.7674 65.4224 40.7674 64.9399 40.6945C62.5552 40.3341 60.5667 38.6817 59.7758 36.4032C59.6158 35.9422 59.5148 35.3997 59.3127 34.3147C59.2607 34.0353 59.2347 33.8956 59.2118 33.8522C59.0901 33.6207 58.7588 33.6207 58.6371 33.8522C58.6142 33.8956 58.5882 34.0353 58.5362 34.3147L58.3533 35.2972C58.3242 35.4534 58.3096 35.5315 58.2953 35.6002C57.6779 38.559 55.1007 40.7006 52.0788 40.7659C52.0087 40.7674 51.9293 40.7674 51.7704 40.7674C51.6115 40.7674 51.5321 40.7674 51.4619 40.7659C48.4401 40.7006 45.8628 38.559 45.2455 35.6002C45.2311 35.5315 45.2166 35.4534 45.1875 35.2972L45.0046 34.3147C44.9525 34.0353 44.9265 33.8956 44.9037 33.8522C44.782 33.6207 44.4506 33.6207 44.3289 33.8522C44.3061 33.8956 44.2801 34.0353 44.228 34.3147L44.0451 35.2972C44.016 35.4534 44.0015 35.5315 43.9872 35.6002C43.3698 38.559 40.7926 40.7006 37.7707 40.7659C37.7006 40.7674 37.6211 40.7674 37.4622 40.7674C37.3033 40.7674 37.2239 40.7674 37.1538 40.7659C34.1319 40.7006 31.5547 38.559 30.9373 35.6002C30.923 35.5315 30.9084 35.4534 30.8793 35.2972L30.6964 34.3147C30.6444 34.0353 30.6184 33.8956 30.5955 33.8522C30.4738 33.6207 30.1425 33.6207 30.0208 33.8522C29.9979 33.8956 29.9719 34.0353 29.9199 34.3147C29.7179 35.3997 29.6168 35.9422 29.4568 36.4032C28.6659 38.6817 26.6774 40.3341 24.2927 40.6945C23.8102 40.7674 23.2584 40.7674 22.1547 40.7674H21.6242C20.4106 40.7674 19.8039 40.7674 19.3495 40.6319C17.9942 40.2274 17.0566 38.9921 17.0317 37.5779C17.0233 37.1038 17.1865 36.5194 17.513 35.3506L21.0334 22.7468Z" fill="#FEFBF1"/>
</svg>
