<svg width="94" height="92" viewBox="0 0 94 92" fill="none" xmlns="http://www.w3.org/2000/svg">
<path d="M42.1304 3.07022C44.7302 -0.0783365 49.555 -0.0783331 52.1548 3.07022L58.6884 10.9831C60.0708 12.6573 62.1979 13.5307 64.358 13.3112L74.6425 12.2657C78.7455 11.8486 82.1947 15.3089 81.7644 19.4105L80.7288 29.282C80.4978 31.4841 81.4036 33.6523 83.1325 35.0356L90.9417 41.2837C94.1939 43.8858 94.1939 48.8324 90.9417 51.4345L83.1325 57.6827C81.4036 59.0659 80.4978 61.2341 80.7288 63.4362L81.7644 73.3077C82.1947 77.4093 78.7455 80.8696 74.6425 80.4525L64.358 79.4071C62.1979 79.1875 60.0708 80.0609 58.6884 81.7351L52.1548 89.648C49.555 92.7965 44.7302 92.7965 42.1304 89.648L35.5967 81.7351C34.2143 80.0609 32.0872 79.1875 29.9272 79.4071L19.6427 80.4525C15.5396 80.8696 12.0905 77.4093 12.5208 73.3077L13.5563 63.4362C13.7874 61.2341 12.8815 59.0659 11.1526 57.6827L3.34344 51.4345C0.0912168 48.8324 0.0912197 43.8858 3.34345 41.2837L11.1527 35.0356C12.8815 33.6523 13.7874 31.4841 13.5563 29.282L12.5208 19.4105C12.0905 15.3089 15.5396 11.8486 19.6427 12.2657L29.9272 13.3111C32.0872 13.5307 34.2143 12.6573 35.5967 10.9831L42.1304 3.07022Z" fill="#1B46F4"/>
</svg>
