<svg width="892" height="136" viewBox="0 0 892 136" fill="none" xmlns="http://www.w3.org/2000/svg">
<path d="M111.643 0.20166C124.7 0.20179 135.284 10.786 135.284 23.8423V111.652C135.284 124.708 124.7 135.292 111.643 135.292H0.193237V0.20166H111.643ZM67.7421 33.9751C65.877 33.9753 64.3651 35.4879 64.3651 37.353V98.144C64.3653 100.009 65.8772 101.521 67.7421 101.521C69.6071 101.521 71.1198 100.009 71.12 98.144V37.353C71.12 35.4878 69.6073 33.9751 67.7421 33.9751Z" fill="#FEFBF1"/>
<path d="M142.04 23.8426C142.04 10.7861 152.625 0.20166 165.681 0.20166H209.586V111.652C209.586 124.708 199.002 135.293 185.945 135.293H142.04V23.8426Z" fill="#FEFBF1"/>
<path d="M459.503 0.20166C478.155 0.201877 493.275 15.3222 493.275 33.9741C493.275 42.3307 490.238 49.9769 485.21 55.8735L459.501 88.0103V88.0122H493.275V135.294H425.73V104.897C425.73 103.032 424.217 101.52 422.352 101.52C420.487 101.52 418.975 103.032 418.975 104.897V135.292H358.182V0.20166H459.503ZM412.221 47.481C410.356 47.4811 408.845 48.9929 408.844 50.8579C408.844 52.723 410.356 54.2357 412.221 54.2358H439.24C441.105 54.2358 442.617 52.7231 442.617 50.8579C442.617 48.9928 441.105 47.481 439.24 47.481H412.221Z" fill="#FEFBF1"/>
<path fill-rule="evenodd" clip-rule="evenodd" d="M729.686 0.20166C755.799 0.20166 776.968 21.3704 776.968 47.4835C776.968 73.5965 755.799 94.7653 729.686 94.7653H709.423V135.293H641.877V0.20166H729.686ZM695.914 47.4835C694.048 47.4835 692.536 48.9955 692.536 50.8607C692.536 52.726 694.048 54.238 695.914 54.238H722.932C724.797 54.238 726.309 52.726 726.309 50.8607C726.309 48.9955 724.797 47.4835 722.932 47.4835H695.914Z" fill="#FEFBF1"/>
<path d="M351.431 0.20166C351.431 26.3147 330.262 47.4835 304.149 47.4835H287.263C285.398 47.4835 283.886 48.9955 283.886 50.8607C283.886 52.726 285.398 54.238 287.263 54.238H317.659C337.922 54.238 351.431 64.8224 351.431 77.8789V111.652C351.431 124.708 340.847 135.293 327.79 135.293H216.34C216.34 109.18 237.509 88.0107 263.622 88.0107H280.509C282.374 88.0107 283.886 86.4987 283.886 84.6335C283.886 82.7682 282.374 81.2562 280.509 81.2562H250.113C229.849 81.2562 216.34 70.6718 216.34 57.6153V0.20166H351.431Z" fill="#FEFBF1"/>
<path d="M635.119 111.652C635.119 124.708 624.534 135.293 611.478 135.293H523.669C510.612 135.293 500.028 124.708 500.028 111.652V0.20166H564.196V64.3698C564.196 66.235 565.708 67.7471 567.573 67.7471C569.438 67.7471 570.95 66.235 570.95 64.3698V0.20166H635.119V111.652Z" fill="#FEFBF1"/>
<path d="M891.795 0.20166V47.4839H851.268V135.292H783.723V47.9019C783.724 47.7623 783.726 47.6227 783.726 47.4829C783.726 27.1383 772.483 9.41987 755.871 0.20166H891.795Z" fill="#FEFBF1"/>
</svg>
