<svg width="205" height="106" viewBox="0 0 205 106" fill="none" xmlns="http://www.w3.org/2000/svg">
<g filter="url(#filter0_d_2576_167)">
<mask id="path-1-inside-1_2576_167" fill="white">
<path d="M183.919 0C194.558 0.000238947 203.183 8.62533 203.183 19.2646V32.0266C203.183 42.666 194.558 51.291 183.918 51.291H155.903C145.264 51.291 136.639 59.9162 136.639 70.5557V83.5598C136.639 94.1992 128.014 102.824 117.374 102.824H21.2646C10.6252 102.824 2 94.199 2 83.5596V19.2646C2 8.62518 10.6252 0 21.2646 0H183.919Z"/>
</mask>
<path d="M183.919 0L183.919 -0.182775H183.919V0ZM183.919 0L183.919 0.182775C194.457 0.183012 203 8.72626 203 19.2646H203.183H203.365C203.365 8.52439 194.659 -0.182534 183.919 -0.182775L183.919 0ZM203.183 19.2646H203V32.0266H203.183H203.365V19.2646H203.183ZM183.918 51.291V51.1082H155.903V51.291V51.4738H183.918V51.291ZM155.903 51.291V51.1082C145.163 51.1082 136.456 59.8153 136.456 70.5557H136.639H136.821C136.821 60.0171 145.365 51.4738 155.903 51.4738V51.291ZM136.639 70.5557H136.456V83.5598H136.639H136.821V70.5557H136.639ZM117.374 102.824V102.641H21.2646V102.824V103.007H117.374V102.824ZM21.2646 102.824V102.641C10.7261 102.641 2.18277 94.0981 2.18277 83.5596H2H1.81723C1.81723 94.3 10.5242 103.007 21.2646 103.007V102.824ZM2 83.5596H2.18277V19.2646H2H1.81723V83.5596H2ZM2 19.2646H2.18277C2.18277 8.72613 10.7261 0.182775 21.2646 0.182775V0V-0.182775C10.5242 -0.182775 1.81723 8.52424 1.81723 19.2646H2ZM21.2646 0V0.182775H183.919V0V-0.182775H21.2646V0ZM136.639 83.5598H136.456C136.456 94.0983 127.913 102.641 117.374 102.641V102.824V103.007C128.115 103.007 136.821 94.3002 136.821 83.5598H136.639ZM203.183 32.0266H203C203 42.5651 194.457 51.1082 183.918 51.1082V51.291V51.4738C194.659 51.4738 203.365 42.767 203.365 32.0266H203.183Z" fill="#FEFBF1" mask="url(#path-1-inside-1_2576_167)"/>
</g>
<defs>
<filter id="filter0_d_2576_167" x="0.782341" y="0" width="203.618" height="105.26" filterUnits="userSpaceOnUse" color-interpolation-filters="sRGB">
<feFlood flood-opacity="0" result="BackgroundImageFix"/>
<feColorMatrix in="SourceAlpha" type="matrix" values="0 0 0 0 0 0 0 0 0 0 0 0 0 0 0 0 0 0 127 0" result="hardAlpha"/>
<feOffset dy="1.21766"/>
<feGaussianBlur stdDeviation="0.608829"/>
<feComposite in2="hardAlpha" operator="out"/>
<feColorMatrix type="matrix" values="0 0 0 0 0 0 0 0 0 0 0 0 0 0 0 0 0 0 0.25 0"/>
<feBlend mode="normal" in2="BackgroundImageFix" result="effect1_dropShadow_2576_167"/>
<feBlend mode="normal" in="SourceGraphic" in2="effect1_dropShadow_2576_167" result="shape"/>
</filter>
</defs>
</svg>
