<svg width="446" height="322" viewBox="0 0 446 322" fill="none" xmlns="http://www.w3.org/2000/svg">
<path d="M63.1612 12.6189C64.3782 5.03124 71.5158 -0.133769 79.1035 1.08281C86.6912 2.29979 91.8562 9.43752 90.6397 17.0252C90.3587 18.7774 89.7618 20.4005 88.9166 21.8457C88.2357 23.01 88.238 24.5131 89.1457 25.5109L113.278 52.0405C114.254 53.1131 115.895 53.2051 117.103 52.4025C121.613 49.4042 127.221 48.0287 132.99 48.9539C145.164 50.9064 153.45 62.3591 151.498 74.533C149.546 86.7068 138.094 94.9937 125.92 93.0418C123.064 92.5837 120.421 91.6022 118.075 90.2114C116.871 89.4976 115.301 89.6346 114.368 90.6775L96.1129 111.061C95.1322 112.156 95.2107 113.835 96.2892 114.834L111.367 128.796C112.354 129.71 113.853 129.729 115.021 129.061C117.585 127.595 120.63 126.932 123.768 127.353L124.123 127.405C131.592 128.603 136.712 135.537 135.71 142.991L135.658 143.346C135.012 147.376 132.696 150.722 129.529 152.792C128.361 153.556 127.688 154.971 128.12 156.299L142.302 199.859C142.702 201.086 143.919 201.828 145.209 201.876C148.508 201.997 151.646 203.296 154.059 205.486C155.076 206.409 156.583 206.711 157.754 205.993L173.462 196.362C174.782 195.553 175.134 193.805 174.42 192.431C173.857 191.346 173.375 190.2 172.986 188.999C169.188 177.269 175.617 164.68 187.347 160.882C199.076 157.083 211.666 163.512 215.465 175.242C217.436 181.328 216.651 187.645 213.803 192.846C213.136 194.063 213.32 195.612 214.377 196.512L226.397 206.746C227.563 207.739 229.319 207.562 230.263 206.357L264.874 162.177C265.67 161.161 265.607 159.735 264.926 158.637C264.343 157.699 263.863 156.675 263.508 155.577C261.14 148.266 265.148 140.419 272.459 138.052C279.77 135.684 287.617 139.692 289.984 147.003C291.458 151.555 290.461 156.313 287.733 159.828C286.855 160.96 286.692 162.57 287.587 163.689L298.024 176.734C298.923 177.858 300.54 178.048 301.84 177.427C304.301 176.251 307.132 175.785 310.029 176.25C310.667 176.352 311.288 176.496 311.889 176.679C313.333 177.119 314.989 176.631 315.677 175.287L343.024 121.84C343.661 120.594 343.226 119.081 342.127 118.213C335.986 113.362 332.581 105.42 333.908 97.1443C335.861 84.9704 347.313 76.6833 359.487 78.6355C371.661 80.588 379.947 92.04 377.995 104.214C377.501 107.297 376.397 110.131 374.827 112.612C374.071 113.808 374.172 115.399 375.21 116.361L405.377 144.296C406.178 145.038 407.348 145.222 408.339 144.763L438.921 130.588C440.167 130.01 440.761 128.589 440.466 127.247C439.881 124.587 439.775 121.775 440.232 118.924C440.886 114.846 442.607 111.205 445.063 108.239C445.996 107.112 446.07 105.452 445.086 104.37L421.36 78.2873C420.332 77.1572 418.58 77.1333 417.299 77.9655C414.508 79.7784 411.062 80.6023 407.518 80.034C399.93 78.8168 394.765 71.6784 395.981 64.0906C397.199 56.5033 404.337 51.3389 411.925 52.5555C419.512 53.7725 424.676 60.9102 423.46 68.4978C423.18 70.2434 422.587 71.8609 421.747 73.3019C421.069 74.4657 421.072 75.9665 421.979 76.963L446.11 103.494C447.085 104.566 448.726 104.658 449.933 103.857C454.443 100.863 460.046 99.4913 465.812 100.416C477.985 102.368 486.271 113.819 484.318 125.993C482.366 138.167 470.915 146.454 458.741 144.502C455.874 144.042 453.224 143.054 450.871 141.655C449.666 140.939 448.095 141.075 447.16 142.119L428.919 162.488C427.939 163.583 428.017 165.262 429.096 166.26L444.207 180.254C445.194 181.168 446.692 181.187 447.86 180.52C450.519 179.001 453.694 178.345 456.953 178.868C464.541 180.085 469.706 187.224 468.489 194.811C467.272 202.399 460.134 207.564 452.547 206.347C447.43 205.527 443.415 202.013 441.716 197.484C441.233 196.195 440.026 195.235 438.653 195.342L420.291 196.774C418.746 196.894 417.637 198.293 417.65 199.843C417.66 201.075 417.568 202.325 417.366 203.582C415.414 215.756 403.961 224.042 391.787 222.09C384.179 220.869 378.09 215.939 375.069 209.441C374.367 207.932 372.578 207.142 371.085 207.878L296.136 244.823C295.766 245.006 295.595 245.436 295.722 245.828C299.52 257.558 293.09 270.147 281.36 273.946C269.631 277.744 257.042 271.314 253.243 259.585C252.279 256.606 251.973 253.572 252.247 250.64C252.379 249.23 251.565 247.857 250.202 247.473L210.628 236.315C209.577 236.019 208.451 236.386 207.777 237.246L185.512 265.667C185.503 265.679 185.485 265.681 185.474 265.672C187.994 268.123 189.971 271.207 191.13 274.785C192.401 278.709 192.525 282.728 191.691 286.483C191.374 287.91 192.063 289.421 193.431 289.937L226.451 302.383C227.878 302.921 229.447 302.149 230.21 300.829C231.872 297.956 234.56 295.664 237.966 294.56C245.163 292.23 252.878 296.077 255.376 303.171L255.492 303.511C257.86 310.822 253.852 318.668 246.541 321.036C239.344 323.366 231.63 319.52 229.132 312.426L229.017 312.085C228.469 310.394 228.262 308.675 228.359 307.001C228.436 305.654 227.751 304.315 226.488 303.839L192.922 291.185C191.565 290.674 190.061 291.339 189.351 292.603C186.698 297.325 182.33 301.1 176.771 302.901C165.041 306.7 152.451 300.271 148.652 288.541C144.854 276.811 151.284 264.222 163.014 260.424C165.766 259.533 168.565 259.205 171.286 259.377C172.684 259.465 174.019 258.629 174.376 257.275L181.363 230.816C181.738 229.394 180.904 227.935 179.49 227.536L159.722 221.963C158.426 221.598 157.081 222.265 156.345 223.393C154.668 225.965 152.133 228.002 148.984 229.021C141.788 231.352 134.072 227.505 131.574 220.411L131.459 220.07C129.092 212.759 133.099 204.913 140.41 202.546C141.127 202.313 141.568 201.559 141.334 200.842L127.041 156.943C126.581 155.529 125.06 154.785 123.584 154.962C122.327 155.113 121.028 155.094 119.716 154.884L119.362 154.821C114.422 153.9 110.558 150.455 108.894 146.042C108.409 144.755 107.204 143.799 105.833 143.905L87.4743 145.337C85.931 145.457 84.8223 146.853 84.8327 148.401C84.841 149.623 84.7488 150.863 84.5489 152.109C82.5962 164.283 71.1446 172.569 58.9707 170.617C46.7968 168.665 38.5108 157.213 40.4629 145.039C41.4758 138.723 45.0459 133.456 49.9466 130.12C51.094 129.339 51.635 127.876 51.1032 126.594L45.0574 112.019C44.471 110.605 42.8257 109.964 41.437 110.607L-9.47137 134.205C-10.6445 134.749 -11.2363 136.05 -11.1271 137.338C-11.0333 138.444 -11.0712 139.579 -11.2549 140.724C-12.4718 148.312 -19.6096 153.477 -27.1972 152.261C-34.6665 151.063 -39.7883 144.128 -38.7861 136.674L-38.7334 136.318C-37.5163 128.73 -30.3788 123.566 -22.791 124.783C-22.1478 124.886 -21.5221 125.032 -20.9161 125.217C-19.4709 125.658 -17.8126 125.17 -17.1243 123.824L10.2197 70.3858C10.8574 69.1396 10.4215 67.6257 9.32268 66.7582C3.17823 61.9076 -0.228912 53.9628 1.09866 45.6844C3.05122 33.5105 14.5037 25.2243 26.6778 27.1766C38.8513 29.1293 47.1378 40.5809 45.1856 52.7547C44.69 55.8446 43.5824 58.684 42.0065 61.1692C41.2483 62.3647 41.349 63.958 42.3876 64.9198L72.5552 92.8552C73.3566 93.5973 74.5269 93.7819 75.5179 93.3225L108.226 78.1601C108.261 78.1438 108.302 78.1591 108.318 78.1941C107.178 74.8528 106.813 71.1917 107.411 67.4627C108.064 63.3898 109.782 59.7531 112.233 56.7887C113.165 55.6621 113.238 54.003 112.255 52.9216L88.5191 26.8276C87.4923 25.6989 85.7426 25.6736 84.462 26.5031C81.6742 28.309 78.2341 29.1286 74.6963 28.5613L74.3428 28.4998C67.0666 27.1428 62.123 20.3101 63.1094 12.9744L63.1612 12.6189ZM254.429 303.855C252.251 297.131 245.035 293.445 238.311 295.623C231.587 297.801 227.902 305.017 230.079 311.741L230.185 312.053C232.482 318.578 239.577 322.117 246.196 319.973C252.921 317.796 256.606 310.579 254.429 303.855ZM239.199 298.892C244.163 297.285 249.491 300.007 251.099 304.97C252.706 309.934 249.985 315.262 245.022 316.87C240.057 318.477 234.729 315.757 233.121 310.793C231.514 305.829 234.235 300.5 239.199 298.892ZM190.067 275.129C186.459 263.986 174.5 257.878 163.357 261.486C152.215 265.095 146.107 277.053 149.716 288.196C153.325 299.339 165.283 305.447 176.426 301.839L176.944 301.664C187.757 297.857 193.62 286.098 190.067 275.129ZM165.056 265.19C174.054 262.277 183.713 267.209 186.628 276.208C189.542 285.206 184.609 294.863 175.61 297.778C166.611 300.692 156.953 295.76 154.038 286.762C151.124 277.763 156.057 268.105 165.056 265.19ZM294.659 246.173C291.051 235.03 279.091 228.922 267.948 232.53C256.806 236.139 250.697 248.097 254.306 259.24L254.481 259.76C258.289 270.572 270.048 276.435 281.017 272.883C292.16 269.274 298.268 257.316 294.659 246.173ZM269.193 236.582C278.192 233.668 287.85 238.602 290.765 247.6C293.679 256.599 288.747 266.257 279.748 269.172C270.749 272.086 261.09 267.152 258.176 258.153C255.262 249.154 260.195 239.496 269.193 236.582ZM175.77 257.278C175.384 258.74 176.285 260.218 177.701 260.748C179.3 261.347 180.826 262.126 182.248 263.07C183.529 263.92 185.291 263.763 186.239 262.553L205.01 238.592C206.191 237.084 205.464 234.859 203.62 234.339L185.973 229.364C184.524 228.956 183.022 229.814 182.638 231.269L175.77 257.278ZM212.267 231.515C211.085 233.023 211.812 235.248 213.656 235.768L250.326 246.107C251.766 246.513 253.246 245.659 253.812 244.274C254.639 242.248 255.761 240.348 257.143 238.641C258.152 237.394 258.118 235.529 256.897 234.488L230.865 212.322C229.699 211.329 227.942 211.506 226.998 212.711L212.267 231.515ZM323.348 185.648C322.173 186.192 321.581 187.496 321.692 188.786C321.778 189.784 321.756 190.805 321.617 191.837L321.565 192.192C320.348 199.78 313.21 204.945 305.622 203.728L305.269 203.667C297.993 202.31 293.048 195.477 294.034 188.141L294.086 187.786C294.476 185.357 295.472 183.176 296.896 181.373C297.79 180.241 297.963 178.618 297.061 177.491L286.662 164.493C285.757 163.362 284.127 163.177 282.822 163.809C282.251 164.086 281.654 164.327 281.033 164.528C280.409 164.73 279.781 164.885 279.153 164.996C277.664 165.259 276.407 166.448 276.406 167.96L276.36 227.978C276.359 229.378 277.436 230.528 278.81 230.801C284.989 232.028 290.501 235.845 293.764 241.446C294.544 242.784 296.212 243.421 297.601 242.736L373.538 205.304C373.551 205.298 373.565 205.303 373.572 205.315C373.585 205.342 373.626 205.327 373.619 205.298C372.942 202.503 372.796 199.529 373.28 196.512C374.294 190.191 377.869 184.919 382.776 181.583C383.925 180.802 384.467 179.339 383.935 178.056L377.88 163.46C377.293 162.046 375.648 161.404 374.259 162.048L323.348 185.648ZM231.155 207.406C230.264 208.543 230.429 210.181 231.529 211.117L258.48 234.066C259.478 234.916 260.932 234.908 262.02 234.178C263.706 233.045 265.576 232.125 267.605 231.468C269.148 230.968 270.707 230.645 272.259 230.489C273.763 230.337 275.012 229.139 275.013 227.627L275.059 167.489C275.06 166.128 274.033 165.006 272.73 164.612C271.609 164.273 270.535 163.795 269.536 163.19C268.18 162.369 266.348 162.483 265.37 163.73L231.155 207.406ZM213.83 197.817C212.669 196.829 210.93 197.013 209.841 198.08C207.453 200.421 204.501 202.259 201.104 203.359C198.188 204.303 195.219 204.615 192.345 204.37C190.925 204.25 189.55 205.087 189.186 206.466L184.357 224.756C183.982 226.177 184.815 227.637 186.23 228.036L206.648 233.792C207.699 234.089 208.826 233.721 209.499 232.861L226.106 211.663C226.997 210.526 226.832 208.888 225.732 207.952L213.83 197.817ZM156.873 211.841C154.695 205.117 147.478 201.431 140.754 203.608C134.03 205.786 130.344 213.002 132.522 219.726L132.627 220.039C134.924 226.564 142.022 230.102 148.641 227.959C155.364 225.781 159.05 218.564 156.873 211.841ZM158.793 206.939C157.515 207.723 157.151 209.396 157.688 210.796C157.734 210.915 157.778 211.035 157.82 211.156L157.936 211.497C158.565 213.441 158.743 215.422 158.529 217.328C158.358 218.847 159.162 220.404 160.632 220.819L179.746 226.208C181.195 226.616 182.697 225.758 183.081 224.303L187.834 206.308C188.213 204.871 187.348 203.413 185.968 202.863C183.094 201.717 180.468 199.981 178.28 197.752C177.324 196.779 175.823 196.496 174.66 197.209L158.793 206.939ZM141.914 206.781C146.878 205.174 152.207 207.896 153.814 212.86C155.422 217.824 152.7 223.152 147.736 224.76C142.772 226.367 137.445 223.645 135.837 218.681C134.23 213.717 136.95 208.389 141.914 206.781ZM398.14 179.027C386.779 177.499 376.209 185.304 374.383 196.688C372.528 208.253 380.399 219.132 391.964 220.987L392.506 221.067C403.867 222.595 414.437 214.789 416.263 203.405L416.343 202.863C417.87 191.502 410.065 180.933 398.681 179.107L398.14 179.027ZM378.623 197.25C380.121 187.91 388.907 181.552 398.247 183.05C407.587 184.547 413.944 193.334 412.446 202.674C410.948 212.013 402.162 218.371 392.822 216.874C383.483 215.376 377.126 206.589 378.623 197.25ZM456.776 179.971C449.798 178.853 443.233 183.602 442.113 190.581C440.994 197.56 445.745 204.125 452.724 205.244C459.702 206.363 466.268 201.612 467.387 194.634L467.435 194.307C468.357 187.452 463.646 181.073 456.776 179.971ZM214.401 175.587C210.793 164.444 198.834 158.336 187.691 161.944L187.172 162.119C176.359 165.926 170.497 177.686 174.049 188.654L174.225 189.174C178.032 199.986 189.791 205.849 200.76 202.297L201.278 202.122C212.091 198.315 217.954 186.555 214.401 175.587ZM309.525 177.304C302.67 176.383 296.291 181.093 295.189 187.963C294.071 194.941 298.821 201.506 305.799 202.626C312.778 203.745 319.343 198.994 320.462 192.015C321.581 185.037 316.831 178.473 309.853 177.353L309.525 177.304ZM445.3 190.995C446.126 185.843 450.972 182.336 456.124 183.162C461.276 183.988 464.783 188.835 463.957 193.987C463.131 199.139 458.284 202.646 453.132 201.82C447.98 200.994 444.474 196.147 445.3 190.995ZM188.783 165.963C197.782 163.049 207.44 167.982 210.355 176.98C213.268 185.979 208.335 195.636 199.337 198.551C190.338 201.465 180.68 196.533 177.766 187.534C174.852 178.535 179.784 168.877 188.783 165.963ZM298.53 188.211C299.357 183.059 304.204 179.552 309.355 180.378C314.508 181.204 318.014 186.051 317.189 191.203C316.362 196.355 311.516 199.862 306.363 199.036C301.211 198.209 297.704 193.363 298.53 188.211ZM411.993 181.387C411 182.496 411.109 184.189 412.09 185.307C414.132 187.632 415.685 190.371 416.624 193.35C417.034 194.65 418.241 195.582 419.6 195.476L438.177 194.026C439.669 193.91 440.754 192.591 440.916 191.104C440.942 190.871 440.973 190.638 441.011 190.404C441.336 188.378 442.083 186.525 443.148 184.921C443.994 183.646 443.989 181.89 442.866 180.85L428.261 167.326C427.157 166.304 425.429 166.384 424.425 167.506L411.993 181.387ZM316.671 176.304C316.05 177.518 316.457 178.987 317.442 179.93C318.287 180.739 319.026 181.651 319.643 182.642C320.478 183.984 322.159 184.712 323.593 184.047L373.941 160.708C375.252 160.101 375.85 158.567 375.296 157.233L361.741 124.556C361.239 123.345 359.939 122.69 358.638 122.847C356.616 123.091 354.528 123.06 352.417 122.721C350.812 122.464 349.274 122.041 347.819 121.473C346.41 120.923 344.752 121.422 344.064 122.768L316.671 176.304ZM380.374 159.213C379.063 159.821 378.465 161.354 379.019 162.689L385.017 177.149C385.601 178.556 387.232 179.183 388.687 178.729C391.875 177.733 395.336 177.439 398.857 178.004C401.873 178.487 404.649 179.554 407.09 181.07C408.3 181.821 409.903 181.699 410.853 180.639L423.495 166.523C424.476 165.428 424.398 163.749 423.319 162.75L407.773 148.353C406.972 147.611 405.801 147.427 404.81 147.886L380.374 159.213ZM65.8643 127.634C54.2994 125.779 43.4203 133.651 41.5655 145.216C39.711 156.78 47.5835 167.659 59.1485 169.513C70.7129 171.368 81.5903 163.497 83.4453 151.932C85.2999 140.368 77.429 129.488 65.8643 127.634ZM45.8096 145.825C47.3078 136.486 56.0942 130.129 65.4336 131.627C74.7729 133.125 81.13 141.909 79.6328 151.249C78.1349 160.588 69.3494 166.946 60.0098 165.449C50.6702 163.951 44.3119 155.165 45.8096 145.825ZM288.922 147.346C286.744 140.623 279.528 136.937 272.804 139.114L272.49 139.22C265.966 141.517 262.428 148.613 264.571 155.232L264.677 155.546C266.974 162.07 274.071 165.608 280.689 163.465L281.002 163.359C287.527 161.062 291.065 153.965 288.922 147.346ZM411.417 144.824C409.678 145.63 409.314 147.942 410.719 149.243L424.153 161.684C425.257 162.707 426.985 162.626 427.989 161.505L445.926 141.475C446.934 140.35 446.806 138.626 445.788 137.509C444.642 136.252 443.642 134.868 442.808 133.385C442.054 132.044 440.414 131.382 439.018 132.029L411.417 144.824ZM273.88 142.518C278.844 140.911 284.172 143.633 285.78 148.596C287.388 153.561 284.666 158.889 279.702 160.497C274.738 162.104 269.41 159.382 267.803 154.418C266.196 149.454 268.916 144.126 273.88 142.518ZM374.484 117.527C373.385 116.509 371.677 116.598 370.543 117.576C368.884 119.007 367.019 120.192 365.01 121.086C363.545 121.738 362.727 123.413 363.342 124.895L376.437 156.462C377.023 157.876 378.668 158.517 380.057 157.874L401.733 147.826C403.471 147.02 403.836 144.708 402.43 143.407L374.484 117.527ZM123.946 128.509C116.968 127.39 110.403 132.139 109.283 139.117C108.164 146.095 112.914 152.661 119.893 153.78L120.22 153.829C127.075 154.751 133.453 150.039 134.555 143.17C135.674 136.191 130.925 129.628 123.946 128.509ZM-22.9677 125.886C-29.9465 124.766 -36.5114 129.516 -37.6308 136.495C-38.7498 143.474 -33.9992 150.039 -27.0205 151.158C-20.042 152.277 -13.4766 147.526 -12.3574 140.548L-12.3095 140.221C-11.3877 133.366 -16.0983 126.987 -22.9677 125.886ZM112.481 139.566C113.308 134.415 118.155 130.908 123.307 131.733C128.458 132.56 131.966 137.407 131.14 142.558C130.313 147.71 125.466 151.217 120.314 150.391C115.163 149.565 111.655 144.718 112.481 139.566ZM-34.2754 136.791C-33.4488 131.639 -28.6029 128.132 -23.4511 128.958C-18.2993 129.784 -14.7925 134.63 -15.6181 139.782C-16.4445 144.934 -21.2912 148.441 -26.4433 147.615C-31.5948 146.788 -35.1012 141.943 -34.2754 136.791ZM79.2016 129.944C78.2102 131.051 78.317 132.743 79.2958 133.861C81.333 136.188 82.8818 138.928 83.8164 141.907C84.2248 143.209 85.4327 144.144 86.793 144.037L105.345 142.59C106.839 142.474 107.923 141.152 108.084 139.662C108.097 139.54 108.112 139.418 108.128 139.296L108.18 138.94C108.504 136.918 109.25 135.068 110.313 133.465C111.158 132.19 111.152 130.436 110.03 129.396L95.4556 115.9C94.3514 114.877 92.6234 114.958 91.6193 116.079L79.2016 129.944ZM465.634 101.518C454.069 99.6642 443.191 107.536 441.336 119.1C439.482 130.665 447.353 141.544 458.918 143.398C470.483 145.253 481.361 137.381 483.216 125.816L483.296 125.275C484.824 113.914 477.018 103.344 465.634 101.518ZM444.886 119.647C446.384 110.308 455.169 103.95 464.509 105.448C473.848 106.946 480.206 115.732 478.708 125.072C477.21 134.412 468.424 140.769 459.084 139.271C449.744 137.773 443.388 128.987 444.886 119.647ZM-16.1351 124.852C-16.7557 126.065 -16.3501 127.532 -15.367 128.475C-14.5225 129.286 -13.7837 130.199 -13.1681 131.19C-12.3332 132.535 -10.6508 133.266 -9.21457 132.6L41.1202 109.268C42.4309 108.66 43.0288 107.127 42.4752 105.792L28.9135 73.0985C28.4115 71.8884 27.1128 71.2332 25.812 71.3894C23.7957 71.6316 21.7122 71.6009 19.6074 71.2635C18.0043 71.0064 16.4685 70.584 15.0146 70.017C13.6062 69.4678 11.9489 69.9668 11.2603 71.3126L-16.1351 124.852ZM47.5518 107.773C46.2411 108.38 45.6432 109.914 46.1967 111.248L52.1832 125.68C52.7673 127.088 54.4003 127.715 55.8552 127.259C59.0475 126.26 62.5138 125.964 66.041 126.53C69.0684 127.016 71.8549 128.09 74.3035 129.615C75.5136 130.369 77.1195 130.249 78.0706 129.187L90.689 115.096C91.6697 114.001 91.5911 112.322 90.5126 111.323L74.9507 96.9129C74.1492 96.1708 72.979 95.9862 71.9881 96.4456L47.5518 107.773ZM358.768 79.659C347.407 78.1317 336.838 85.9374 335.012 97.3211C333.157 108.886 341.029 119.764 352.594 121.619L353.136 121.699C364.497 123.227 375.067 115.421 376.893 104.037C378.747 92.4722 370.874 81.5936 359.31 79.7391L358.768 79.659ZM339.119 97.7947C340.617 88.4554 349.404 82.099 358.743 83.5965C368.083 85.0945 374.439 93.8791 372.941 103.219C371.443 112.558 362.658 118.916 353.318 117.419C343.979 115.921 337.622 107.134 339.119 97.7947ZM78.5946 93.3824C76.8562 94.1882 76.4914 96.5002 77.8973 97.8021L91.3472 110.257C92.4514 111.28 94.1794 111.199 95.1834 110.078L113.128 90.0407C114.136 88.9144 114.007 87.1878 112.986 86.0718C111.835 84.8127 110.831 83.4253 109.994 81.9388C109.239 80.5991 107.599 79.9383 106.204 80.5849L78.5946 93.3824ZM41.6568 66.0815C40.559 65.0648 38.8521 65.1522 37.7183 66.1286C36.0589 67.5577 34.1942 68.7406 32.1858 69.6326C30.7193 70.284 29.9008 71.9607 30.5156 73.4429L43.6145 105.022C44.201 106.435 45.8462 107.077 47.2349 106.433L68.9113 96.3858C70.6497 95.58 71.0145 93.268 69.6087 91.9661L41.6568 66.0815ZM132.272 49.9773C120.911 48.4498 110.341 56.2556 108.515 67.6395C106.66 79.2044 114.532 90.0836 126.097 91.9383L126.639 92.0184C137.999 93.5457 148.57 85.7401 150.396 74.3562L150.476 73.8143C152.003 62.4536 144.197 51.8833 132.814 50.0574L132.272 49.9773ZM112.067 68.2361C113.566 58.8967 122.352 52.5393 131.691 54.0369C141.031 55.535 147.388 64.3206 145.891 73.66C144.393 82.9997 135.606 89.3576 126.267 87.8602C116.927 86.362 110.57 77.5759 112.067 68.2361ZM411.748 53.659C404.769 52.5401 398.204 57.29 397.085 64.2684C395.966 71.247 400.717 77.8112 407.695 78.9305C414.674 80.0491 421.237 75.2995 422.356 68.3211L422.405 67.9939C423.327 61.1385 418.617 54.7609 411.748 53.659ZM400.551 64.7303C401.377 59.5784 406.224 56.0711 411.376 56.8973C416.528 57.7238 420.035 62.5698 419.209 67.7215C418.383 72.8735 413.536 76.3804 408.384 75.5545C403.232 74.7282 399.725 69.8823 400.551 64.7303ZM26.5 28.2791C14.9354 26.4248 4.05712 34.2966 2.20218 45.8611C0.347576 57.4261 8.21923 68.3054 19.7842 70.16C31.3489 72.0141 42.2283 64.1425 44.083 52.5779L44.1631 52.0359C45.6906 40.6752 37.8838 30.1049 26.5 28.2791ZM6.31155 46.366C7.80974 37.0266 16.596 30.6702 25.9356 32.1678C35.2744 33.6662 41.6311 42.4507 40.1338 51.7898C38.636 61.1293 29.8503 67.4871 20.5108 65.99C11.1712 64.492 4.81382 55.7057 6.31155 46.366ZM78.5996 2.1375C71.7442 1.2158 65.3666 5.92621 64.2647 12.7957C63.1455 19.7744 67.8947 26.3393 74.8731 27.4588C81.8519 28.5778 88.417 23.8272 89.5362 16.8484L89.585 16.5223C90.507 9.66654 85.7963 3.2872 78.9268 2.18535L78.5996 2.1375ZM67.7324 13.3016C68.559 8.14993 73.4059 4.64298 78.5576 5.46855C83.7094 6.29512 87.2165 11.1419 86.3906 16.2937C85.5641 21.4455 80.7173 24.9525 75.5655 24.1268C70.4138 23.3 66.9065 18.4534 67.7324 13.3016Z" fill="#9C39EE"/>
</svg>
