<svg width="39" height="32" viewBox="0 0 39 32" fill="none" xmlns="http://www.w3.org/2000/svg">
<path d="M16.4718 0.724324L10.5767 22.1612L8.61164 14.1224C11.1722 14.1224 13.2563 14.8667 14.8641 16.3554C16.4718 17.8441 17.2757 19.8984 17.2757 22.5185C17.2757 25.079 16.4421 27.1631 14.7747 28.7709C13.167 30.3191 11.1424 31.0932 8.70096 31.0932C6.19999 31.0932 4.11585 30.3191 2.44854 28.7709C0.840774 27.1631 0.0368908 25.079 0.0368908 22.5185C0.0368908 21.7444 0.0964377 21 0.215531 20.2855C0.334625 19.5114 0.572813 18.6182 0.930094 17.6059C1.28738 16.5936 1.79352 15.2538 2.44854 13.5864L7.62912 0.724324H16.4718ZM37.5514 0.724324L31.6563 22.1612L29.6912 14.1224C32.2518 14.1224 34.3359 14.8667 35.9437 16.3554C37.5514 17.8441 38.3553 19.8984 38.3553 22.5185C38.3553 25.079 37.5217 27.1631 35.8543 28.7709C34.2466 30.3191 32.222 31.0932 29.7806 31.0932C27.2796 31.0932 25.1954 30.3191 23.5281 28.7709C21.9204 27.1631 21.1165 25.079 21.1165 22.5185C21.1165 21.7444 21.176 21 21.2951 20.2855C21.4142 19.5114 21.6524 18.6182 22.0097 17.6059C22.367 16.5936 22.8731 15.2538 23.5281 13.5864L28.7087 0.724324H37.5514Z" fill="#FEFBF1"/>
</svg>
