<svg width="39" height="31" viewBox="0 0 39 31" fill="none" xmlns="http://www.w3.org/2000/svg">
<path d="M1.01941 30.3787L6.91456 8.94179L8.8796 17.0699C6.31909 17.0699 4.20517 16.3256 2.53786 14.8369C0.930094 13.2887 0.126211 11.2046 0.126211 8.58451C0.126211 6.024 0.959867 3.96963 2.62718 2.42141C4.29449 0.813643 6.34886 0.0097603 8.79028 0.0097603C11.2913 0.0097603 13.3456 0.813643 14.9534 2.42141C16.5611 3.96963 17.365 6.024 17.365 8.58451C17.365 9.35862 17.3055 10.1327 17.1864 10.9068C17.1268 11.6214 16.9184 12.4848 16.5611 13.4971C16.2634 14.5094 15.7573 15.8492 15.0427 17.5165L9.86213 30.3787H1.01941ZM22.099 30.3787L27.9941 8.94179L29.9592 17.0699C27.3987 17.0699 25.2848 16.3256 23.6175 14.8369C22.0097 13.2887 21.2058 11.2046 21.2058 8.58451C21.2058 6.024 22.0395 3.96963 23.7068 2.42141C25.3741 0.813643 27.4285 0.0097603 29.8699 0.0097603C32.3708 0.0097603 34.4252 0.813643 36.033 2.42141C37.6407 3.96963 38.4446 6.024 38.4446 8.58451C38.4446 9.35862 38.3851 10.1327 38.266 10.9068C38.2064 11.6214 37.998 12.4848 37.6407 13.4971C37.343 14.5094 36.8369 15.8492 36.1223 17.5165L30.9417 30.3787H22.099Z" fill="#FEFBF1"/>
</svg>
