<svg width="199" height="104" viewBox="0 0 199 104" fill="none" xmlns="http://www.w3.org/2000/svg">
<g filter="url(#filter0_d_2576_170)">
<mask id="path-1-inside-1_2576_170" fill="white">
<path d="M20.9609 100.651C10.5513 100.651 2.1123 92.2125 2.1123 81.8029V69.3162C2.1123 58.9066 10.551 50.4679 20.9607 50.4679H47.7285C58.1379 50.4677 66.5759 42.0296 66.5762 31.6202V18.8973C66.5762 8.48764 75.0149 0.0489502 85.4245 0.0489502H178.151C188.561 0.0489502 197 8.4871 197 18.8966V81.8029C197 92.2125 188.561 100.651 178.151 100.651H20.9609Z"/>
</mask>
<path d="M20.9609 100.651L20.9609 100.83H20.9609V100.651ZM47.7285 50.4679L47.7285 50.6467L47.7285 50.6467L47.7285 50.4679ZM66.5762 31.6202L66.755 31.6202V31.6202H66.5762ZM197 18.8966L197.179 18.8966L197.179 18.8966L197 18.8966ZM20.9609 100.651L20.9609 100.473C10.6501 100.473 2.29113 92.1137 2.29113 81.8029H2.1123H1.93348C1.93348 92.3113 10.4525 100.83 20.9609 100.83L20.9609 100.651ZM2.1123 81.8029H2.29113V69.3162H2.1123H1.93348V81.8029H2.1123ZM20.9607 50.4679V50.6467H47.7285V50.4679V50.2891H20.9607V50.4679ZM47.7285 50.4679L47.7285 50.6467C58.2366 50.6465 66.7548 42.1283 66.755 31.6202L66.5762 31.6202L66.3973 31.6202C66.3971 41.9308 58.0391 50.2889 47.7285 50.2891L47.7285 50.4679ZM66.5762 31.6202H66.755V18.8973H66.5762H66.3973V31.6202H66.5762ZM85.4245 0.0489502V0.227777H178.151V0.0489502V-0.129877H85.4245V0.0489502ZM178.151 0.0489502V0.227777C188.462 0.227777 196.821 8.58588 196.821 18.8966L197 18.8966L197.179 18.8966C197.179 8.38833 188.66 -0.129877 178.151 -0.129877V0.0489502ZM197 18.8966H196.821V81.8029H197H197.179V18.8966H197ZM197 81.8029H196.821C196.821 92.1137 188.462 100.473 178.151 100.473V100.651V100.83C188.66 100.83 197.179 92.3113 197.179 81.8029H197ZM178.151 100.651V100.473H20.9609V100.651V100.83H178.151V100.651ZM66.5762 18.8973H66.755C66.755 8.58641 75.1136 0.227777 85.4245 0.227777V0.0489502V-0.129877C74.9161 -0.129877 66.3973 8.38888 66.3973 18.8973H66.5762ZM2.1123 69.3162H2.29113C2.29113 59.0054 10.6498 50.6467 20.9607 50.6467V50.4679V50.2891C10.4522 50.2891 1.93348 58.8078 1.93348 69.3162H2.1123Z" fill="#FEFBF1" mask="url(#path-1-inside-1_2576_170)"/>
</g>
<defs>
<filter id="filter0_d_2576_170" x="0.920948" y="0.0489502" width="197.27" height="102.985" filterUnits="userSpaceOnUse" color-interpolation-filters="sRGB">
<feFlood flood-opacity="0" result="BackgroundImageFix"/>
<feColorMatrix in="SourceAlpha" type="matrix" values="0 0 0 0 0 0 0 0 0 0 0 0 0 0 0 0 0 0 127 0" result="hardAlpha"/>
<feOffset dy="1.19136"/>
<feGaussianBlur stdDeviation="0.595679"/>
<feComposite in2="hardAlpha" operator="out"/>
<feColorMatrix type="matrix" values="0 0 0 0 0 0 0 0 0 0 0 0 0 0 0 0 0 0 0.25 0"/>
<feBlend mode="normal" in2="BackgroundImageFix" result="effect1_dropShadow_2576_170"/>
<feBlend mode="normal" in="SourceGraphic" in2="effect1_dropShadow_2576_170" result="shape"/>
</filter>
</defs>
</svg>
